<svg xmlns="http://www.w3.org/2000/svg" viewBox="0 0 64 64" role="img" aria-label="Oyen">
  <defs>
    <linearGradient id="bg" x1="0%" y1="0%" x2="100%" y2="100%">
      <stop offset="0%" stop-color="#eef2ff" />
      <stop offset="100%" stop-color="#fce7f3" />
    </linearGradient>
  </defs>
  <rect width="64" height="64" rx="14" fill="url(#bg)" />
  <g transform="translate(0 2)">
    <path fill="#FFCC4D" d="M10 30 18 6 26 26Z"/>
    <path fill="#FFCC4D" d="M38 26 46 6 54 30Z"/>
    <path fill="#E69928" d="M14 26 18 14 22 26Z"/>
    <path fill="#E69928" d="M42 26 46 14 50 26Z"/>
    <circle cx="32" cy="36" r="23" fill="#FFCC4D"/>
    <ellipse cx="23" cy="34" rx="3.2" ry="4.5" fill="#313131"/>
    <ellipse cx="41" cy="34" rx="3.2" ry="4.5" fill="#313131"/>
    <circle cx="24.2" cy="32.5" r="1" fill="#fff" opacity="0.75"/>
    <circle cx="42.2" cy="32.5" r="1" fill="#fff" opacity="0.75"/>
    <path fill="#E67533" d="M32 40 28 44h8Z"/>
    <path stroke="#8B5A2B" stroke-width="1.5" fill="none" stroke-linecap="round" d="M32 44v2"/>
    <path stroke="#8B5A2B" stroke-width="1.5" fill="none" stroke-linecap="round" d="M32 46q-5 3-8 1"/>
    <path stroke="#8B5A2B" stroke-width="1.5" fill="none" stroke-linecap="round" d="M32 46q5 3 8 1"/>
  </g>
</svg>
