<svg xmlns="http://www.w3.org/2000/svg" viewBox="0 0 64 64" role="img" aria-label="Oyen">
  <defs>
    <linearGradient id="bg" x1="0%" y1="0%" x2="100%" y2="100%">
      <stop offset="0%" stop-color="#eef2ff" />
      <stop offset="100%" stop-color="#fce7f3" />
    </linearGradient>
    <linearGradient id="oyenFace" x1="32" y1="6" x2="32" y2="58" gradientUnits="userSpaceOnUse">
      <stop offset="0%" stop-color="#FFE566"/>
      <stop offset="42%" stop-color="#FFB347"/>
      <stop offset="100%" stop-color="#FF7B6B"/>
    </linearGradient>
    <linearGradient id="oyenEar" x1="32" y1="6" x2="32" y2="24" gradientUnits="userSpaceOnUse">
      <stop offset="0%" stop-color="#FFE566"/>
      <stop offset="100%" stop-color="#FFAA44"/>
    </linearGradient>
  </defs>
  <rect width="64" height="64" rx="14" fill="url(#bg)" />
  <g transform="translate(0 1)">
    <path fill="url(#oyenFace)" d="M12 24 16 10 24 20 40 20 48 10 52 24 56 28 56 48 Q56 56 32 56 Q8 56 8 48 L8 28 Z"/>
    <path fill="url(#oyenEar)" d="M14 22 17 12 23 19 Z" opacity="0.9"/>
    <path fill="url(#oyenEar)" d="M41 19 47 12 50 22 Z" opacity="0.9"/>
    <circle cx="23" cy="30" r="2.6" fill="#4A2C12"/>
    <circle cx="41" cy="30" r="2.6" fill="#4A2C12"/>
    <ellipse cx="32" cy="35" rx="2.2" ry="1.6" fill="#F48FB1"/>
    <path fill="#6D1B4D" d="M22 37 Q32 50 42 37 Q32 46 22 37 Z"/>
    <path fill="#F48FB1" d="M27 40 Q32 46 37 40 Q32 43 27 40 Z"/>
  </g>
</svg>
